PathFileType	4	(X/Y/Z)	/Users/itak/Documents/Research/Walk-IL/dataset/trc/00003_00004.trc
DataRate	CameraRate	NumFrames	NumMarkers	Units	OrigDataRate	OrigDataStartFrame	OrigNumFrames
100.000000	100.000000	4	53	mm	100.000000	142	569
Frame#	Time	RPSI			LPSI			L3			STRN			T10			C7			CLAV			RBAK			LBAK			LSHO			LUPA			LAEL			LAOL			LWTS			LWPS			LFRA			LIFD			LHPS			LHTS			RSHO			RUPA			RAEL			RAOL			RWTS			RWPS			RFRA			RIFD			RHTS			RHPS			RBHD			LFHD			RFHD			LBHD			LHIP			RHIP			RASI			LASI			LKNE			LTHI			LANK			LTIP			LTOE			LMT1			LMT5			LHEE			RKNE			RTHI			RANK			RTIP			RTOE			RMT1			RMT5			RHEE			
		X1	Y1	Z1	X2	Y2	Z2	X3	Y3	Z3	X4	Y4	Z4	X5	Y5	Z5	X6	Y6	Z6	X7	Y7	Z7	X8	Y8	Z8	X9	Y9	Z9	X10	Y10	Z10	X11	Y11	Z11	X12	Y12	Z12	X13	Y13	Z13	X14	Y14	Z14	X15	Y15	Z15	X16	Y16	Z16	X17	Y17	Z17	X18	Y18	Z18	X19	Y19	Z19	X20	Y20	Z20	X21	Y21	Z21	X22	Y22	Z22	X23	Y23	Z23	X24	Y24	Z24	X25	Y25	Z25	X26	Y26	Z26	X27	Y27	Z27	X28	Y28	Z28	X29	Y29	Z29	X30	Y30	Z30	X31	Y31	Z31	X32	Y32	Z32	X33	Y33	Z33	X34	Y34	Z34	X35	Y35	Z35	X36	Y36	Z36	X37	Y37	Z37	X38	Y38	Z38	X39	Y39	Z39	X40	Y40	Z40	X41	Y41	Z41	X42	Y42	Z42	X43	Y43	Z43	X44	Y44	Z44	X45	Y45	Z45	X46	Y46	Z46	X47	Y47	Z47	X48	Y48	Z48	X49	Y49	Z49	X50	Y50	Z50	X51	Y51	Z51	X52	Y52	Z52	X53	Y53	Z53	

143	1.42	-1175.037841796875	1066.623291015625	-122.4618530273438	-1178.458740234375	1064.008178710938	-285.1376953125	-1175.4306640625	1128.072021484375	-210.0222625732422	-939.1404418945312	1311.167602539062	-193.3528747558594	-1195.244018554688	1275.099487304688	-209.3900299072266	-1130.874755859375	1538.837158203125	-212.7111206054688	-975.9837036132812	1439.291137695312	-198.4451293945312	-1192.164184570312	1404.324096679688	-138.2523040771484	-1144.739013671875	1499.996826171875	-312.0805969238281	-1037.3095703125	1501.66552734375	-378.1958923339844	-1067.678833007812	1381.830444335938	-461.1649780273438	-1074.63330078125	1167.289794921875	-496.7024230957031	-1140.506225585938	1152.091796875	-415.1046142578125	-963.431396484375	931.1773681640625	-425.36328125	-1030.125366210938	903.989013671875	-476.6416931152344	-1049.467407226562	1053.639770507812	-500.2155151367188	-906.496826171875	754.9369506835938	-398.6654968261719	-983.0867309570312	821.005859375	-467.7395935058594	-925.7273559570312	842.6795043945312	-433.0256958007812	-1064.930053710938	1520.840942382812	-34.00542831420898	-1089.906616210938	1450.544067382812	36.41487503051758	-1161.790893554688	1190.902465820312	55.56276702880859	-1160.724243164062	1162.85009765625	-41.4331169128418	-1088.99169921875	909.7503051757812	37.03452301025391	-1161.599365234375	913.3887939453125	96.01555633544922	-1163.841186523438	1116.135864257812	71.99556732177734	-1115.94140625	722.9619750976562	31.11931610107422	-1086.361206054688	795.2925415039062	57.89067459106445	-1146.630126953125	806.9564208984375	100.7450942993164	-1073.035522460938	1717.67626953125	-273.0519409179688	-887.9863891601562	1724.818481445312	-156.4591979980469	-891.1021728515625	1721.109130859375	-254.7835693359375	-1061.487548828125	1718.19140625	-128.6800842285156	-1081.573974609375	967.6609497070312	-398.3858032226562	-1069.486206054688	949.3088989257812	-21.05612754821777	-963.7077026367188	978.5936279296875	-92.75765228271484	-969.60986328125	1006.829711914062	-327.228759765625	-931.3941040039062	532.2124633789062	-371.9245300292969	-989.998046875	665.697265625	-399.466552734375	-1136.468872070312	65.54021453857422	-384.7505798339844	-1056.805908203125	303.7218627929688	-397.0606079101562	-922.3429565429688	54.81801605224609	-313.6857604980469	-981.4022216796875	64.27214813232422	-297.2018737792969	-1011.966003417969	53.46466064453125	-398.2668762207031	-1207.239990234375	79.52043151855469	-334.4570617675781	-1097.794799804688	515.2959594726562	-84.80348968505859	-1055.206176757812	781.17626953125	-30.34186935424805	-1249.080810546875	45.01266860961914	-132.6442108154297	-1133.9658203125	394.7000122070312	-90.65538024902344	-1017.402282714844	46.34243392944336	-171.245849609375	-1078.787353515625	50.87466049194336	-203.1627960205078	-1100.034545898438	44.99602890014648	-107.9867706298828	-1304.915771484375	46.07111740112305	-178.6129608154297	
144	1.43	-1171.860473632812	1066.228637695312	-122.2928771972656	-1175.096923828125	1063.776489257812	-284.9674377441406	-1172.142333984375	1127.7021484375	-209.6967468261719	-935.7717895507812	1310.810546875	-193.1171264648438	-1192.077880859375	1274.84130859375	-208.6789245605469	-1127.510498046875	1538.531860351562	-211.9961090087891	-972.580810546875	1438.975219726562	-198.1758880615234	-1188.641845703125	1404.053466796875	-137.3814544677734	-1141.589965820312	1499.624145507812	-311.3245544433594	-1034.417358398438	1501.35302734375	-377.74951171875	-1065.389282226562	1381.658203125	-460.7049865722656	-1073.23046875	1167.2294921875	-496.4849548339844	-1138.671020507812	1152.083740234375	-414.4887390136719	-962.5306396484375	930.557373046875	-426.3331298828125	-1029.5439453125	903.7015380859375	-477.2208251953125	-1048.560546875	1053.478149414062	-500.3992309570312	-906.0302124023438	753.9730224609375	-400.3133850097656	-982.8698120117188	820.540283203125	-468.8077392578125	-925.241455078125	841.8740844726562	-434.4556884765625	-1061.080322265625	1520.538940429688	-33.48930740356445	-1085.8623046875	1450.247314453125	37.00449752807617	-1157.572265625	1190.588012695312	56.3641471862793	-1156.867431640625	1162.533935546875	-40.66232299804688	-1085.531860351562	909.2557373046875	37.74851989746094	-1157.931884765625	913.1791381835938	96.95504760742188	-1159.691528320312	1115.88427734375	72.81083679199219	-1113.197509765625	722.5362548828125	32.0241813659668	-1083.25244140625	794.7979125976562	58.68083190917969	-1143.276123046875	806.677978515625	101.6918716430664	-1069.50439453125	1717.427490234375	-272.5379638671875	-884.3242797851562	1724.243286132812	-156.1500091552734	-887.55419921875	1720.597045898438	-254.4892272949219	-1057.778442382812	1717.837768554688	-128.1712493896484	-1077.809814453125	967.7883911132812	-398.2085266113281	-1066.662475585938	948.7083740234375	-20.91193962097168	-960.5629272460938	978.1083374023438	-92.18740844726562	-966.1497802734375	1006.889587402344	-326.6241149902344	-924.0911254882812	533.6229248046875	-371.029541015625	-983.8941040039062	666.4403686523438	-398.8497924804688	-1124.038696289062	64.69856262207031	-384.004150390625	-1047.167358398438	303.7574462890625	-396.3133239746094	-909.6831665039062	55.30785369873047	-313.7344970703125	-968.5975952148438	64.28450012207031	-297.107666015625	-999.5459594726562	53.59431838989258	-398.0686340332031	-1194.629150390625	78.00246429443359	-333.4245910644531	-1096.032470703125	514.8799438476562	-84.66410064697266	-1052.762084960938	780.6587524414062	-30.24721908569336	-1249.035034179688	45.08185195922852	-132.7377624511719	-1132.702880859375	394.3834228515625	-90.63833618164062	-1017.373718261719	46.29739761352539	-171.2120361328125	-1078.728271484375	50.84983825683594	-203.1063537597656	-1100.010131835938	44.93606948852539	-107.9274978637695	-1304.85107421875	46.10307312011719	-178.7709350585938	
145	1.44	-1168.578857421875	1065.800415039062	-122.1514892578125	-1171.658569335938	1063.505004882812	-284.8254699707031	-1168.77294921875	1127.28564453125	-209.4090576171875	-932.3030395507812	1310.403442382812	-192.9269256591797	-1188.765625	1274.539428710938	-208.0207366943359	-1124.03564453125	1538.18603515625	-211.3334350585938	-969.0638427734375	1438.608276367188	-197.9548034667969	-1185.016357421875	1403.73876953125	-136.5631713867188	-1138.323364257812	1499.19970703125	-310.6172485351562	-1031.408325195312	1500.98388671875	-377.349853515625	-1062.975708007812	1381.423095703125	-460.2841796875	-1071.694091796875	1167.097412109375	-496.2768249511719	-1136.7255859375	1152.028564453125	-413.89404296875	-961.7330932617188	929.7457275390625	-427.3330383300781	-1029.115112304688	903.3099975585938	-477.8533020019531	-1047.621948242188	1053.224853515625	-500.6024780273438	-905.9815063476562	752.745849609375	-402.0578308105469	-982.8734741210938	819.9154052734375	-469.9350891113281	-924.9871826171875	840.8261108398438	-435.9743957519531	-1057.129272460938	1520.19140625	-33.02141189575195	-1081.713012695312	1449.90478515625	37.54770278930664	-1153.229614257812	1190.205688476562	57.11869812011719	-1152.879516601562	1162.151245117188	-39.93648147583008	-1081.748168945312	908.74560546875	38.37744903564453	-1153.948120117188	912.8768310546875	97.80010223388672	-1155.39111328125	1115.546997070312	73.56974792480469	-1109.943481445312	722.0740356445312	32.80411911010742	-1079.729248046875	794.2875366210938	59.3947639465332	-1139.524536132812	806.3364868164062	102.553955078125	-1065.898071289062	1717.110229492188	-272.0890197753906	-880.5997314453125	1723.669311523438	-155.8981781005859	-883.9335327148438	1720.071533203125	-254.2504730224609	-1054.0009765625	1717.440551757812	-127.7315139770508	-1073.979370117188	967.8643188476562	-398.0683288574219	-1063.738647460938	948.0836791992188	-20.82531356811523	-957.2993774414062	977.5882568359375	-91.69746398925781	-962.6290893554688	1006.890319824219	-326.09423828125	-916.743408203125	535.0449829101562	-370.13037109375	-977.75390625	667.1668090820312	-398.2640686035156	-1110.977661132812	63.73614501953125	-383.3424987792969	-1037.22119140625	303.7030334472656	-395.6218872070312	-896.3663940429688	55.66806411743164	-314.0514526367188	-955.1098022460938	64.12168884277344	-297.2377014160156	-986.5220947265625	53.68341064453125	-398.0924072265625	-1181.359741210938	76.29911804199219	-332.4313659667969	-1094.186401367188	514.4486083984375	-84.56059265136719	-1050.1943359375	780.1137084960938	-30.21060180664062	-1248.989624023438	45.16643905639648	-132.8348846435547	-1131.384887695312	394.0439147949219	-90.61970520019531	-1017.340087890625	46.24496841430664	-171.1847686767578	-1078.655151367188	50.81434631347656	-203.0534057617188	-1099.977416992188	44.87726974487305	-107.8706970214844	-1304.792114257812	46.15899276733398	-178.9456787109375	
146	1.45	-1165.194580078125	1065.336181640625	-122.0319900512695	-1168.154663085938	1063.188842773438	-284.7066955566406	-1165.32177734375	1126.821166992188	-209.1560211181641	-928.7357177734375	1309.942504882812	-192.789306640625	-1185.309814453125	1274.193115234375	-207.4103851318359	-1120.447631835938	1537.799926757812	-210.7257385253906	-965.4389038085938	1438.183349609375	-197.7855224609375	-1181.287475585938	1403.379516601562	-135.7994384765625	-1134.945434570312	1498.732543945312	-309.9596862792969	-1028.283813476562	1500.557495117188	-376.9994812011719	-1060.435668945312	1381.121215820312	-459.9060974121094	-1070.011474609375	1166.89111328125	-496.0751953125	-1134.655517578125	1151.918701171875	-413.3165283203125	-961.03564453125	928.7332763671875	-428.3539428710938	-1028.845703125	902.8147583007812	-478.5304870605469	-1046.63818359375	1052.876342773438	-500.8179931640625	-906.2894897460938	751.2726440429688	-403.8905029296875	-983.09033203125	819.1305541992188	-471.1093444824219	-924.952392578125	839.5332641601562	-437.5660095214844	-1053.073120117188	1519.793823242188	-32.60387802124023	-1077.45556640625	1449.509887695312	38.04135894775391	-1148.767700195312	1189.75146484375	57.82957458496094	-1148.76171875	1161.7001953125	-39.24631881713867	-1077.64208984375	908.2157592773438	38.91537094116211	-1149.642700195312	912.4744262695312	98.55315399169922	-1150.937744140625	1115.119873046875	74.27717590332031	-1106.185546875	721.5701904296875	33.45134735107422	-1075.788818359375	793.7534790039062	60.01527786254883	-1135.363647460938	805.9259033203125	103.3226776123047	-1062.2119140625	1716.723876953125	-271.705322265625	-876.8076782226562	1723.09130859375	-155.701416015625	-880.2352905273438	1719.528564453125	-254.0641021728516	-1050.154174804688	1716.9990234375	-127.3596954345703	-1070.094360351562	967.88232421875	-397.9642333984375	-1060.682250976562	947.436767578125	-20.77526664733887	-953.9180297851562	977.0294189453125	-91.287353515625	-959.0557250976562	1006.822692871094	-325.6396179199219	-909.3554077148438	536.4703979492188	-369.2671508789062	-971.5927124023438	667.8770751953125	-397.7428894042969	-1097.310668945312	62.6806640625	-382.7677001953125	-1026.960083007812	303.5651550292969	-395.0028991699219	-882.45263671875	55.92690658569336	-314.5596923828125	-941.01123046875	63.82374954223633	-297.5211486816406	-972.9175415039062	53.74539566040039	-398.2760314941406	-1167.485961914062	74.471923828125	-331.5052490234375	-1092.277099609375	514.0048217773438	-84.4837646484375	-1047.491333007812	779.5303955078125	-30.22772979736328	-1248.949829101562	45.26607513427734	-132.9362030029297	-1130.02880859375	393.6903991699219	-90.59664916992188	-1017.296264648438	46.18395233154297	-171.158935546875	-1078.569580078125	50.76976776123047	-203.0037841796875	-1099.939086914062	44.81967544555664	-107.8155517578125	-1304.746215820312	46.24744033813477	-179.1307220458984	
